<svg width="32" height="32" viewBox="0 0 32 32" fill="none" xmlns="http://www.w3.org/2000/svg">
  <path d="M16 2C12.6863 2 10 4.68629 10 8C10 11.3137 12.6863 14 16 14C19.3137 14 22 11.3137 22 8C22 4.68629 19.3137 2 16 2Z" fill="black"/>
  <path d="M8 16C8 14.8954 8.89543 14 10 14H22C23.1046 14 24 14.8954 24 16V18H8V16Z" fill="black"/>
  <path d="M6 20C6 18.8954 6.89543 18 8 18H24C25.1046 18 26 18.8954 26 20V22H6V20Z" fill="black"/>
  <path d="M10 24C10 22.8954 10.8954 22 12 22H20C21.1046 22 22 22.8954 22 24V26H10V24Z" fill="black"/>
  <path d="M12 6L16 4L20 6L16 8L12 6Z" fill="black"/>
  <path d="M8 28C8 26.8954 8.89543 26 10 26H22C23.1046 26 24 26.8954 24 28H8Z" fill="black"/>
</svg>
