<svg width="32" height="32" viewBox="0 0 32 32" fill="none" xmlns="http://www.w3.org/2000/svg">
<path d="M4 16C4 10.4772 8.47715 6 14 6H18C23.5228 6 28 10.4772 28 16V22C28 22.5523 27.5523 23 27 23H5C4.44772 23 4 22.5523 4 22V16Z" fill="#F3F4F6"/>
<path d="M24 23C24 24.6569 22.6569 26 21 26H11C9.34315 26 8 24.6569 8 23C8 21.3431 9.34315 20 11 20H21C22.6569 20 24 21.3431 24 23Z" fill="#E5E7EB"/>
<path d="M28 16C28 10.4772 23.5228 6 18 6H14C8.47715 6 4 10.4772 4 16V22C4 22.5523 4.44772 23 5 23H27C27.5523 23 28 22.5523 28 22V16Z" fill="white"/>
<path d="M28 20L26 22L24 20L22 22L20 20L18 22L16 20L14 22L12 20L10 22L8 20" stroke="#4B5563" stroke-width="1.5" stroke-linecap="round" stroke-linejoin="round"/>
<circle cx="12" cy="14" r="1.5" fill="black"/>
<circle cx="20" cy="14" r="1.5" fill="black"/>
</svg>
